<mxfile host="app.diagrams.net" modified="2024-01-18T12:22:56.459Z" agent="Mozilla/5.0 (Windows NT 10.0; Win64; x64) AppleWebKit/537.36 (KHTML, like Gecko) Chrome/120.0.0.0 Safari/537.36 Edg/120.0.0.0" etag="Tc2l1XFdokpQVRjX3ZJz" version="22.1.21" type="github">
  <diagram name="第 1 页" id="adxJvWafzfLS6Lv8L_2Y">
    <mxGraphModel dx="980" dy="637" grid="1" gridSize="10" guides="1" tooltips="1" connect="1" arrows="1" fold="1" page="1" pageScale="1" pageWidth="827" pageHeight="1169" math="1" shadow="0">
      <root>
        <mxCell id="0" />
        <mxCell id="1" parent="0" />
        <mxCell id="tVeDP6tvG05khZgqx8Kh-1" value="" style="ellipse;whiteSpace=wrap;html=1;aspect=fixed;fillColor=#f8cecc;strokeColor=#b85450;" vertex="1" parent="1">
          <mxGeometry x="120" y="560" width="20" height="20" as="geometry" />
        </mxCell>
        <mxCell id="tVeDP6tvG05khZgqx8Kh-11" value="" style="edgeStyle=orthogonalEdgeStyle;rounded=0;orthogonalLoop=1;jettySize=auto;html=1;endArrow=classicThin;endFill=1;" edge="1" parent="1" source="tVeDP6tvG05khZgqx8Kh-2" target="tVeDP6tvG05khZgqx8Kh-3">
          <mxGeometry relative="1" as="geometry" />
        </mxCell>
        <mxCell id="tVeDP6tvG05khZgqx8Kh-2" value="" style="ellipse;whiteSpace=wrap;html=1;aspect=fixed;fillColor=#d5e8d4;strokeColor=#82b366;" vertex="1" parent="1">
          <mxGeometry x="200" y="560" width="20" height="20" as="geometry" />
        </mxCell>
        <mxCell id="tVeDP6tvG05khZgqx8Kh-3" value="" style="ellipse;whiteSpace=wrap;html=1;aspect=fixed;fillColor=#666666;strokeColor=#000000;fillStyle=auto;" vertex="1" parent="1">
          <mxGeometry x="280" y="560" width="20" height="20" as="geometry" />
        </mxCell>
        <mxCell id="tVeDP6tvG05khZgqx8Kh-9" value="" style="curved=1;endArrow=classicThin;html=1;rounded=0;exitX=1;exitY=1;exitDx=0;exitDy=0;entryX=0;entryY=1;entryDx=0;entryDy=0;endFill=1;" edge="1" parent="1" source="tVeDP6tvG05khZgqx8Kh-1" target="tVeDP6tvG05khZgqx8Kh-3">
          <mxGeometry width="50" height="50" relative="1" as="geometry">
            <mxPoint x="260" y="770" as="sourcePoint" />
            <mxPoint x="310" y="720" as="targetPoint" />
            <Array as="points">
              <mxPoint x="160" y="600" />
              <mxPoint x="250" y="600" />
            </Array>
          </mxGeometry>
        </mxCell>
        <mxCell id="tVeDP6tvG05khZgqx8Kh-14" style="edgeStyle=orthogonalEdgeStyle;rounded=0;orthogonalLoop=1;jettySize=auto;html=1;exitX=1;exitY=1;exitDx=0;exitDy=0;entryX=1;entryY=0;entryDx=0;entryDy=0;curved=1;endArrow=classicThin;endFill=1;" edge="1" parent="1" source="tVeDP6tvG05khZgqx8Kh-3" target="tVeDP6tvG05khZgqx8Kh-3">
          <mxGeometry relative="1" as="geometry">
            <Array as="points">
              <mxPoint x="320" y="577" />
              <mxPoint x="320" y="563" />
            </Array>
          </mxGeometry>
        </mxCell>
        <mxCell id="tVeDP6tvG05khZgqx8Kh-15" value="&lt;font face=&quot;Times New Roman&quot;&gt;$G(s)$&lt;/font&gt;" style="rounded=0;whiteSpace=wrap;html=1;" vertex="1" parent="1">
          <mxGeometry x="220" y="710" width="50" height="20" as="geometry" />
        </mxCell>
      </root>
    </mxGraphModel>
  </diagram>
</mxfile>
